<?xml version="1.0" encoding="UTF-8" standalone="no"?>
<!DOCTYPE svg PUBLIC "-//W3C//DTD SVG 1.1//EN" "http://www.w3.org/Graphics/SVG/1.1/DTD/svg11.dtd">
<!-- Created with matplotlib (https://matplotlib.org/) -->
<svg height="344.888125pt" version="1.1" viewBox="0 0 499.669062 344.888125" width="499.669062pt" xmlns="http://www.w3.org/2000/svg" xmlns:xlink="http://www.w3.org/1999/xlink">
 <defs>
  <style type="text/css">
*{stroke-linecap:butt;stroke-linejoin:round;}
  </style>
 </defs>
 <g id="figure_1">
  <g id="patch_1">
   <path d="M 0 344.888125  L 499.669062 344.888125  L 499.669062 0  L 0 0  z " style="fill:#ffffff;"/>
  </g>
  <g id="axes_1">
   <g id="patch_2">
    <path d="M 7.2 306.18  L 453.6 306.18  L 453.6 7.2  L 7.2 7.2  z " style="fill:#e5e5e5;"/>
   </g>
   <g id="matplotlib.axis_1">
    <g id="xtick_1">
     <g id="line2d_1">
      <path clip-path="url(#pc7b6969070)" d="M 92.872727 306.18  L 92.872727 7.2  " style="fill:none;stroke:#ffffff;stroke-linecap:round;"/>
     </g>
     <g id="line2d_2"/>
     <g id="text_1">
      <!-- 20 -->
      <defs>
       <path d="M 5.03125 0  L 5.03125 6.203125  Q 7.515625 11.921875 11.109375 16.28125  Q 14.703125 20.65625 18.65625 24.1875  Q 22.609375 27.734375 26.484375 30.765625  Q 30.375 33.796875 33.5 36.8125  Q 36.625 39.84375 38.546875 43.15625  Q 40.484375 46.484375 40.484375 50.6875  Q 40.484375 53.609375 39.59375 55.828125  Q 38.71875 58.0625 37.0625 59.5625  Q 35.40625 61.078125 33.078125 61.828125  Q 30.765625 62.59375 27.9375 62.59375  Q 25.296875 62.59375 22.96875 61.859375  Q 20.65625 61.140625 18.84375 59.671875  Q 17.046875 58.203125 15.890625 56.03125  Q 14.75 53.859375 14.40625 50.984375  L 5.421875 51.8125  Q 5.859375 55.515625 7.46875 58.78125  Q 9.078125 62.0625 11.90625 64.53125  Q 14.75 67 18.71875 68.40625  Q 22.703125 69.828125 27.9375 69.828125  Q 33.0625 69.828125 37.0625 68.609375  Q 41.0625 67.390625 43.8125 64.984375  Q 46.578125 62.59375 48.046875 59.078125  Q 49.515625 55.5625 49.515625 50.984375  Q 49.515625 47.515625 48.265625 44.390625  Q 47.015625 41.265625 44.9375 38.421875  Q 42.875 35.59375 40.140625 32.953125  Q 37.40625 30.328125 34.421875 27.8125  Q 31.453125 25.296875 28.421875 22.828125  Q 25.390625 20.359375 22.71875 17.859375  Q 20.0625 15.375 17.96875 12.8125  Q 15.875 10.25 14.703125 7.46875  L 50.59375 7.46875  L 50.59375 0  z " id="LiberationSans-50"/>
       <path d="M 51.703125 34.421875  Q 51.703125 24.515625 49.828125 17.75  Q 47.953125 10.984375 44.703125 6.8125  Q 41.453125 2.640625 37.0625 0.828125  Q 32.671875 -0.984375 27.6875 -0.984375  Q 22.65625 -0.984375 18.3125 0.828125  Q 13.96875 2.640625 10.765625 6.78125  Q 7.5625 10.9375 5.734375 17.703125  Q 3.90625 24.46875 3.90625 34.421875  Q 3.90625 44.828125 5.734375 51.640625  Q 7.5625 58.453125 10.78125 62.5  Q 14.015625 66.546875 18.40625 68.1875  Q 22.796875 69.828125 27.984375 69.828125  Q 32.90625 69.828125 37.21875 68.1875  Q 41.546875 66.546875 44.765625 62.5  Q 48 58.453125 49.84375 51.640625  Q 51.703125 44.828125 51.703125 34.421875  z M 42.78125 34.421875  Q 42.78125 42.625 41.796875 48.0625  Q 40.828125 53.515625 38.921875 56.765625  Q 37.015625 60.015625 34.25 61.359375  Q 31.5 62.703125 27.984375 62.703125  Q 24.265625 62.703125 21.4375 61.328125  Q 18.609375 59.96875 16.671875 56.71875  Q 14.75 53.46875 13.765625 48.015625  Q 12.796875 42.578125 12.796875 34.421875  Q 12.796875 26.515625 13.796875 21.09375  Q 14.796875 15.671875 16.71875 12.375  Q 18.65625 9.078125 21.4375 7.640625  Q 24.21875 6.203125 27.78125 6.203125  Q 31.25 6.203125 34.03125 7.640625  Q 36.8125 9.078125 38.734375 12.375  Q 40.671875 15.671875 41.71875 21.09375  Q 42.78125 26.515625 42.78125 34.421875  z " id="LiberationSans-48"/>
      </defs>
      <g transform="translate(87.31179 320.426875)scale(0.1 -0.1)">
       <use xlink:href="#LiberationSans-50"/>
       <use x="55.615234" xlink:href="#LiberationSans-48"/>
      </g>
     </g>
    </g>
    <g id="xtick_2">
     <g id="line2d_3">
      <path clip-path="url(#pc7b6969070)" d="M 183.054545 306.18  L 183.054545 7.2  " style="fill:none;stroke:#ffffff;stroke-linecap:round;"/>
     </g>
     <g id="line2d_4"/>
     <g id="text_2">
      <!-- 40 -->
      <defs>
       <path d="M 43.015625 15.578125  L 43.015625 0  L 34.71875 0  L 34.71875 15.578125  L 2.296875 15.578125  L 2.296875 22.40625  L 33.796875 68.796875  L 43.015625 68.796875  L 43.015625 22.515625  L 52.6875 22.515625  L 52.6875 15.578125  z M 34.71875 58.890625  Q 34.625 58.640625 34.234375 57.9375  Q 33.84375 57.234375 33.34375 56.34375  Q 32.859375 55.46875 32.34375 54.5625  Q 31.84375 53.65625 31.453125 53.078125  L 13.8125 27.09375  Q 13.578125 26.703125 13.109375 26.0625  Q 12.640625 25.4375 12.15625 24.78125  Q 11.671875 24.125 11.171875 23.484375  Q 10.6875 22.859375 10.40625 22.515625  L 34.71875 22.515625  z " id="LiberationSans-52"/>
      </defs>
      <g transform="translate(177.493608 320.426875)scale(0.1 -0.1)">
       <use xlink:href="#LiberationSans-52"/>
       <use x="55.615234" xlink:href="#LiberationSans-48"/>
      </g>
     </g>
    </g>
    <g id="xtick_3">
     <g id="line2d_5">
      <path clip-path="url(#pc7b6969070)" d="M 273.236364 306.18  L 273.236364 7.2  " style="fill:none;stroke:#ffffff;stroke-linecap:round;"/>
     </g>
     <g id="line2d_6"/>
     <g id="text_3">
      <!-- 60 -->
      <defs>
       <path d="M 51.21875 22.515625  Q 51.21875 17.328125 49.78125 13  Q 48.34375 8.6875 45.53125 5.578125  Q 42.71875 2.484375 38.5625 0.75  Q 34.421875 -0.984375 29 -0.984375  Q 23 -0.984375 18.5 1.3125  Q 14.015625 3.609375 11.03125 7.921875  Q 8.0625 12.25 6.5625 18.53125  Q 5.078125 24.8125 5.078125 32.8125  Q 5.078125 42 6.765625 48.921875  Q 8.453125 55.859375 11.625 60.5  Q 14.796875 65.140625 19.359375 67.484375  Q 23.921875 69.828125 29.6875 69.828125  Q 33.203125 69.828125 36.28125 69.09375  Q 39.359375 68.359375 41.875 66.71875  Q 44.390625 65.09375 46.28125 62.40625  Q 48.1875 59.71875 49.3125 55.8125  L 40.921875 54.296875  Q 39.546875 58.734375 36.546875 60.71875  Q 33.546875 62.703125 29.59375 62.703125  Q 25.984375 62.703125 23.046875 60.984375  Q 20.125 59.28125 18.0625 55.875  Q 16.015625 52.484375 14.90625 47.359375  Q 13.8125 42.234375 13.8125 35.40625  Q 16.21875 39.84375 20.5625 42.15625  Q 24.90625 44.484375 30.515625 44.484375  Q 35.203125 44.484375 39.015625 42.96875  Q 42.828125 41.453125 45.53125 38.59375  Q 48.25 35.75 49.734375 31.671875  Q 51.21875 27.59375 51.21875 22.515625  z M 42.28125 22.125  Q 42.28125 25.6875 41.40625 28.5625  Q 40.53125 31.453125 38.765625 33.46875  Q 37.015625 35.5 34.421875 36.59375  Q 31.84375 37.703125 28.421875 37.703125  Q 26.03125 37.703125 23.578125 36.984375  Q 21.140625 36.28125 19.15625 34.6875  Q 17.1875 33.109375 15.9375 30.515625  Q 14.703125 27.9375 14.703125 24.21875  Q 14.703125 20.40625 15.671875 17.109375  Q 16.65625 13.8125 18.484375 11.375  Q 20.3125 8.9375 22.890625 7.515625  Q 25.484375 6.109375 28.71875 6.109375  Q 31.890625 6.109375 34.40625 7.203125  Q 36.921875 8.296875 38.671875 10.375  Q 40.4375 12.453125 41.359375 15.421875  Q 42.28125 18.40625 42.28125 22.125  z " id="LiberationSans-54"/>
      </defs>
      <g transform="translate(267.675426 320.426875)scale(0.1 -0.1)">
       <use xlink:href="#LiberationSans-54"/>
       <use x="55.615234" xlink:href="#LiberationSans-48"/>
      </g>
     </g>
    </g>
    <g id="xtick_4">
     <g id="line2d_7">
      <path clip-path="url(#pc7b6969070)" d="M 363.418182 306.18  L 363.418182 7.2  " style="fill:none;stroke:#ffffff;stroke-linecap:round;"/>
     </g>
     <g id="line2d_8"/>
     <g id="text_4">
      <!-- 80 -->
      <defs>
       <path d="M 51.265625 19.1875  Q 51.265625 14.796875 49.875 11.109375  Q 48.484375 7.421875 45.625 4.734375  Q 42.78125 2.046875 38.328125 0.53125  Q 33.890625 -0.984375 27.828125 -0.984375  Q 21.78125 -0.984375 17.359375 0.53125  Q 12.9375 2.046875 10.03125 4.703125  Q 7.125 7.375 5.734375 11.0625  Q 4.34375 14.75 4.34375 19.09375  Q 4.34375 22.859375 5.484375 25.78125  Q 6.640625 28.71875 8.5625 30.828125  Q 10.5 32.953125 12.96875 34.25  Q 15.4375 35.546875 18.0625 35.984375  L 18.0625 36.1875  Q 15.1875 36.859375 12.90625 38.375  Q 10.640625 39.890625 9.09375 42.015625  Q 7.5625 44.140625 6.75 46.71875  Q 5.953125 49.3125 5.953125 52.203125  Q 5.953125 55.8125 7.34375 59  Q 8.734375 62.203125 11.46875 64.625  Q 14.203125 67.046875 18.25 68.4375  Q 22.3125 69.828125 27.640625 69.828125  Q 33.25 69.828125 37.375 68.40625  Q 41.5 67 44.203125 64.578125  Q 46.921875 62.15625 48.234375 58.9375  Q 49.5625 55.71875 49.5625 52.09375  Q 49.5625 49.265625 48.75 46.671875  Q 47.953125 44.09375 46.40625 41.96875  Q 44.875 39.84375 42.59375 38.34375  Q 40.328125 36.859375 37.359375 36.28125  L 37.359375 36.078125  Q 40.328125 35.59375 42.859375 34.296875  Q 45.40625 33.015625 47.265625 30.890625  Q 49.125 28.765625 50.1875 25.828125  Q 51.265625 22.90625 51.265625 19.1875  z M 40.4375 51.609375  Q 40.4375 54.203125 39.765625 56.34375  Q 39.109375 58.5 37.59375 60.03125  Q 36.078125 61.578125 33.640625 62.421875  Q 31.203125 63.28125 27.640625 63.28125  Q 24.171875 63.28125 21.78125 62.421875  Q 19.390625 61.578125 17.84375 60.03125  Q 16.3125 58.5 15.625 56.34375  Q 14.9375 54.203125 14.9375 51.609375  Q 14.9375 49.5625 15.46875 47.40625  Q 16.015625 45.265625 17.421875 43.5  Q 18.84375 41.75 21.328125 40.625  Q 23.828125 39.5 27.734375 39.5  Q 31.890625 39.5 34.40625 40.625  Q 36.921875 41.75 38.25 43.5  Q 39.59375 45.265625 40.015625 47.40625  Q 40.4375 49.5625 40.4375 51.609375  z M 42.140625 20.015625  Q 42.140625 22.515625 41.453125 24.828125  Q 40.765625 27.15625 39.109375 28.9375  Q 37.453125 30.71875 34.640625 31.8125  Q 31.84375 32.90625 27.640625 32.90625  Q 23.78125 32.90625 21.0625 31.8125  Q 18.359375 30.71875 16.671875 28.90625  Q 14.984375 27.09375 14.203125 24.71875  Q 13.421875 22.359375 13.421875 19.828125  Q 13.421875 16.65625 14.203125 14.03125  Q 14.984375 11.421875 16.6875 9.546875  Q 18.40625 7.671875 21.1875 6.640625  Q 23.96875 5.609375 27.9375 5.609375  Q 31.9375 5.609375 34.671875 6.640625  Q 37.40625 7.671875 39.0625 9.546875  Q 40.71875 11.421875 41.421875 14.078125  Q 42.140625 16.75 42.140625 20.015625  z " id="LiberationSans-56"/>
      </defs>
      <g transform="translate(357.857244 320.426875)scale(0.1 -0.1)">
       <use xlink:href="#LiberationSans-56"/>
       <use x="55.615234" xlink:href="#LiberationSans-48"/>
      </g>
     </g>
    </g>
    <g id="xtick_5">
     <g id="line2d_9">
      <path clip-path="url(#pc7b6969070)" d="M 453.6 306.18  L 453.6 7.2  " style="fill:none;stroke:#ffffff;stroke-linecap:round;"/>
     </g>
     <g id="line2d_10"/>
     <g id="text_5">
      <!-- 100 -->
      <defs>
       <path d="M 7.625 0  L 7.625 7.46875  L 25.140625 7.46875  L 25.140625 60.40625  L 9.625 49.3125  L 9.625 57.625  L 25.875 68.796875  L 33.984375 68.796875  L 33.984375 7.46875  L 50.734375 7.46875  L 50.734375 0  z " id="LiberationSans-49"/>
      </defs>
      <g transform="translate(445.258594 320.426875)scale(0.1 -0.1)">
       <use xlink:href="#LiberationSans-49"/>
       <use x="55.615234" xlink:href="#LiberationSans-48"/>
       <use x="111.230469" xlink:href="#LiberationSans-48"/>
      </g>
     </g>
    </g>
    <g id="text_6">
     <!-- Required chops -->
     <defs>
      <path d="M 56.84375 0  L 38.96875 28.5625  L 17.53125 28.5625  L 17.53125 0  L 8.203125 0  L 8.203125 68.796875  L 40.578125 68.796875  Q 46.4375 68.796875 50.953125 67.453125  Q 55.46875 66.109375 58.546875 63.5625  Q 61.625 61.03125 63.234375 57.375  Q 64.84375 53.71875 64.84375 49.125  Q 64.84375 45.84375 63.890625 42.671875  Q 62.9375 39.5 60.890625 36.859375  Q 58.84375 34.234375 55.65625 32.328125  Q 52.484375 30.421875 48.046875 29.640625  L 67.578125 0  z M 55.46875 49.03125  Q 55.46875 52.15625 54.390625 54.4375  Q 53.328125 56.734375 51.265625 58.265625  Q 49.21875 59.8125 46.28125 60.5625  Q 43.359375 61.328125 39.65625 61.328125  L 17.53125 61.328125  L 17.53125 35.9375  L 40.046875 35.9375  Q 44.046875 35.9375 46.96875 36.9375  Q 49.90625 37.9375 51.78125 39.6875  Q 53.65625 41.453125 54.5625 43.84375  Q 55.46875 46.234375 55.46875 49.03125  z " id="LiberationSans-82"/>
      <path d="M 13.484375 24.5625  Q 13.484375 20.40625 14.328125 16.90625  Q 15.1875 13.421875 16.96875 10.90625  Q 18.75 8.40625 21.53125 7  Q 24.3125 5.609375 28.21875 5.609375  Q 33.9375 5.609375 37.375 7.90625  Q 40.828125 10.203125 42.046875 13.71875  L 49.75 11.53125  Q 48.921875 9.328125 47.4375 7.109375  Q 45.953125 4.890625 43.453125 3.09375  Q 40.96875 1.3125 37.234375 0.15625  Q 33.5 -0.984375 28.21875 -0.984375  Q 16.5 -0.984375 10.375 6  Q 4.25 12.984375 4.25 26.765625  Q 4.25 34.1875 6.09375 39.328125  Q 7.953125 44.484375 11.171875 47.703125  Q 14.40625 50.921875 18.703125 52.359375  Q 23 53.8125 27.875 53.8125  Q 34.515625 53.8125 38.984375 51.65625  Q 43.453125 49.515625 46.15625 45.71875  Q 48.875 41.9375 50.015625 36.8125  Q 51.171875 31.6875 51.171875 25.734375  L 51.171875 24.5625  z M 42.09375 31.296875  Q 41.359375 39.65625 37.84375 43.484375  Q 34.328125 47.3125 27.734375 47.3125  Q 25.53125 47.3125 23.109375 46.609375  Q 20.703125 45.90625 18.65625 44.09375  Q 16.609375 42.28125 15.1875 39.171875  Q 13.765625 36.078125 13.578125 31.296875  z " id="LiberationSans-101"/>
      <path d="M 23.640625 -0.984375  Q 13.578125 -0.984375 8.890625 5.796875  Q 4.203125 12.59375 4.203125 26.171875  Q 4.203125 39.9375 9 46.875  Q 13.8125 53.8125 23.640625 53.8125  Q 26.90625 53.8125 29.421875 53.21875  Q 31.9375 52.640625 33.90625 51.484375  Q 35.890625 50.34375 37.375 48.625  Q 38.875 46.921875 40.09375 44.625  L 40.1875 44.625  Q 40.1875 45.84375 40.25 47.328125  Q 40.328125 48.828125 40.40625 50.140625  Q 40.484375 51.46875 40.578125 52.421875  Q 40.671875 53.375 40.765625 53.515625  L 49.21875 53.515625  Q 49.125 52.6875 49 49.171875  Q 48.875 45.65625 48.875 39.109375  L 48.875 -20.75  L 40.09375 -20.75  L 40.09375 0.6875  Q 40.09375 1.953125 40.109375 3.3125  Q 40.140625 4.6875 40.1875 5.90625  Q 40.234375 7.28125 40.28125 8.6875  L 40.1875 8.6875  Q 38.921875 6.203125 37.375 4.375  Q 35.84375 2.546875 33.84375 1.34375  Q 31.84375 0.140625 29.328125 -0.421875  Q 26.8125 -0.984375 23.640625 -0.984375  z M 40.09375 27.046875  Q 40.09375 32.8125 39.09375 36.71875  Q 38.09375 40.625 36.25 42.96875  Q 34.421875 45.3125 31.8125 46.3125  Q 29.203125 47.3125 25.984375 47.3125  Q 22.609375 47.3125 20.21875 46.0625  Q 17.828125 44.828125 16.328125 42.265625  Q 14.84375 39.703125 14.125 35.765625  Q 13.421875 31.84375 13.421875 26.46875  Q 13.421875 21.1875 14.078125 17.28125  Q 14.75 13.375 16.234375 10.828125  Q 17.71875 8.296875 20.09375 7.046875  Q 22.46875 5.8125 25.875 5.8125  Q 28.8125 5.8125 31.390625 6.71875  Q 33.984375 7.625 35.90625 9.984375  Q 37.84375 12.359375 38.96875 16.484375  Q 40.09375 20.609375 40.09375 27.046875  z " id="LiberationSans-113"/>
      <path d="M 15.328125 52.828125  L 15.328125 19.34375  Q 15.328125 15.484375 15.890625 12.890625  Q 16.453125 10.296875 17.71875 8.703125  Q 19 7.125 21.0625 6.46875  Q 23.140625 5.8125 26.21875 5.8125  Q 29.34375 5.8125 31.859375 6.90625  Q 34.375 8.015625 36.15625 10.078125  Q 37.9375 12.15625 38.90625 15.203125  Q 39.890625 18.265625 39.890625 22.21875  L 39.890625 52.828125  L 48.6875 52.828125  L 48.6875 11.28125  Q 48.6875 9.625 48.703125 7.78125  Q 48.734375 5.953125 48.78125 4.3125  Q 48.828125 2.6875 48.875 1.515625  Q 48.921875 0.34375 48.96875 0  L 40.671875 0  Q 40.625 0.25 40.578125 1.3125  Q 40.53125 2.390625 40.453125 3.78125  Q 40.375 5.171875 40.328125 6.609375  Q 40.28125 8.0625 40.28125 9.03125  L 40.140625 9.03125  Q 38.875 6.734375 37.359375 4.875  Q 35.84375 3.03125 33.84375 1.734375  Q 31.84375 0.4375 29.25 -0.265625  Q 26.65625 -0.984375 23.25 -0.984375  Q 18.84375 -0.984375 15.671875 0.09375  Q 12.5 1.171875 10.453125 3.421875  Q 8.40625 5.671875 7.453125 9.1875  Q 6.5 12.703125 6.5 17.625  L 6.5 52.828125  z " id="LiberationSans-117"/>
      <path d="M 6.6875 64.0625  L 6.6875 72.46875  L 15.484375 72.46875  L 15.484375 64.0625  z M 6.6875 0  L 6.6875 52.828125  L 15.484375 52.828125  L 15.484375 0  z " id="LiberationSans-105"/>
      <path d="M 6.9375 0  L 6.9375 40.53125  Q 6.9375 42.1875 6.90625 43.921875  Q 6.890625 45.65625 6.828125 47.265625  Q 6.78125 48.875 6.734375 50.28125  Q 6.6875 51.703125 6.640625 52.828125  L 14.9375 52.828125  Q 14.984375 51.703125 15.0625 50.265625  Q 15.140625 48.828125 15.203125 47.3125  Q 15.28125 45.796875 15.296875 44.40625  Q 15.328125 43.015625 15.328125 42.046875  L 15.53125 42.046875  Q 16.453125 45.0625 17.5 47.28125  Q 18.5625 49.515625 19.96875 50.953125  Q 21.390625 52.390625 23.34375 53.09375  Q 25.296875 53.8125 28.078125 53.8125  Q 29.15625 53.8125 30.125 53.640625  Q 31.109375 53.46875 31.640625 53.328125  L 31.640625 45.265625  Q 30.765625 45.515625 29.59375 45.625  Q 28.421875 45.75 26.953125 45.75  Q 23.921875 45.75 21.796875 44.375  Q 19.671875 43.015625 18.328125 40.59375  Q 17 38.1875 16.359375 34.84375  Q 15.71875 31.5 15.71875 27.546875  L 15.71875 0  z " id="LiberationSans-114"/>
      <path d="M 40.09375 8.5  Q 37.640625 3.421875 33.609375 1.21875  Q 29.59375 -0.984375 23.640625 -0.984375  Q 13.625 -0.984375 8.90625 5.75  Q 4.203125 12.5 4.203125 26.171875  Q 4.203125 53.8125 23.640625 53.8125  Q 29.640625 53.8125 33.640625 51.609375  Q 37.640625 49.421875 40.09375 44.625  L 40.1875 44.625  Q 40.1875 45.125 40.15625 46.171875  Q 40.140625 47.21875 40.109375 48.359375  Q 40.09375 49.515625 40.09375 50.53125  Q 40.09375 51.5625 40.09375 52  L 40.09375 72.46875  L 48.875 72.46875  L 48.875 10.890625  Q 48.875 8.984375 48.890625 7.21875  Q 48.921875 5.46875 48.96875 4  Q 49.03125 2.546875 49.078125 1.484375  Q 49.125 0.4375 49.171875 0  L 40.765625 0  Q 40.671875 0.484375 40.59375 1.390625  Q 40.53125 2.296875 40.453125 3.46875  Q 40.375 4.640625 40.328125 5.9375  Q 40.28125 7.234375 40.28125 8.5  z M 13.421875 26.46875  Q 13.421875 21 14.109375 17.09375  Q 14.796875 13.1875 16.3125 10.671875  Q 17.828125 8.15625 20.171875 6.984375  Q 22.515625 5.8125 25.875 5.8125  Q 29.34375 5.8125 32 6.9375  Q 34.671875 8.0625 36.453125 10.578125  Q 38.234375 13.09375 39.15625 17.140625  Q 40.09375 21.1875 40.09375 27.046875  Q 40.09375 32.671875 39.15625 36.546875  Q 38.234375 40.4375 36.421875 42.828125  Q 34.625 45.21875 32 46.265625  Q 29.390625 47.3125 25.984375 47.3125  Q 22.75 47.3125 20.40625 46.1875  Q 18.0625 45.0625 16.5 42.578125  Q 14.9375 40.09375 14.171875 36.109375  Q 13.421875 32.125 13.421875 26.46875  z " id="LiberationSans-100"/>
      <path id="LiberationSans-32"/>
      <path d="M 13.421875 26.65625  Q 13.421875 22.125 14.078125 18.3125  Q 14.75 14.5 16.3125 11.734375  Q 17.875 8.984375 20.4375 7.46875  Q 23 5.953125 26.765625 5.953125  Q 31.453125 5.953125 34.59375 8.484375  Q 37.75 11.03125 38.484375 16.3125  L 47.359375 15.71875  Q 46.921875 12.453125 45.453125 9.421875  Q 44 6.390625 41.484375 4.09375  Q 38.96875 1.8125 35.34375 0.40625  Q 31.734375 -0.984375 27 -0.984375  Q 20.796875 -0.984375 16.453125 1.109375  Q 12.109375 3.21875 9.390625 6.90625  Q 6.6875 10.59375 5.46875 15.59375  Q 4.25 20.609375 4.25 26.46875  Q 4.25 31.78125 5.125 35.859375  Q 6 39.9375 7.59375 42.984375  Q 9.1875 46.046875 11.328125 48.125  Q 13.484375 50.203125 15.984375 51.4375  Q 18.5 52.6875 21.28125 53.25  Q 24.078125 53.8125 26.90625 53.8125  Q 31.34375 53.8125 34.8125 52.59375  Q 38.28125 51.375 40.796875 49.25  Q 43.3125 47.125 44.875 44.234375  Q 46.4375 41.359375 47.078125 38.03125  L 38.03125 37.359375  Q 37.359375 41.75 34.5625 44.328125  Q 31.78125 46.921875 26.65625 46.921875  Q 22.90625 46.921875 20.390625 45.671875  Q 17.875 44.4375 16.3125 41.921875  Q 14.75 39.40625 14.078125 35.59375  Q 13.421875 31.78125 13.421875 26.65625  z " id="LiberationSans-99"/>
      <path d="M 15.484375 43.796875  Q 16.9375 46.484375 18.640625 48.359375  Q 20.359375 50.25 22.40625 51.46875  Q 24.46875 52.6875 26.90625 53.25  Q 29.34375 53.8125 32.375 53.8125  Q 37.453125 53.8125 40.703125 52.4375  Q 43.953125 51.078125 45.828125 48.609375  Q 47.703125 46.140625 48.40625 42.71875  Q 49.125 39.3125 49.125 35.203125  L 49.125 0  L 40.28125 0  L 40.28125 33.5  Q 40.28125 36.859375 39.859375 39.390625  Q 39.453125 41.9375 38.28125 43.625  Q 37.109375 45.3125 34.953125 46.15625  Q 32.8125 47.015625 29.390625 47.015625  Q 26.265625 47.015625 23.75 45.890625  Q 21.234375 44.78125 19.453125 42.71875  Q 17.671875 40.671875 16.6875 37.734375  Q 15.71875 34.8125 15.71875 31.15625  L 15.71875 0  L 6.9375 0  L 6.9375 72.46875  L 15.71875 72.46875  L 15.71875 53.609375  Q 15.71875 52 15.671875 50.390625  Q 15.625 48.78125 15.546875 47.40625  Q 15.484375 46.046875 15.421875 45.09375  Q 15.375 44.140625 15.328125 43.796875  z " id="LiberationSans-104"/>
      <path d="M 51.421875 26.46875  Q 51.421875 12.59375 45.3125 5.796875  Q 39.203125 -0.984375 27.59375 -0.984375  Q 22.078125 -0.984375 17.71875 0.671875  Q 13.375 2.34375 10.375 5.765625  Q 7.375 9.1875 5.78125 14.328125  Q 4.203125 19.484375 4.203125 26.46875  Q 4.203125 53.8125 27.875 53.8125  Q 34.03125 53.8125 38.5 52.09375  Q 42.96875 50.390625 45.828125 46.96875  Q 48.6875 43.5625 50.046875 38.421875  Q 51.421875 33.296875 51.421875 26.46875  z M 42.1875 26.46875  Q 42.1875 32.625 41.234375 36.625  Q 40.28125 40.625 38.453125 43.015625  Q 36.625 45.40625 33.984375 46.359375  Q 31.34375 47.3125 28.03125 47.3125  Q 24.65625 47.3125 21.9375 46.3125  Q 19.234375 45.3125 17.328125 42.890625  Q 15.4375 40.484375 14.421875 36.46875  Q 13.421875 32.46875 13.421875 26.46875  Q 13.421875 20.3125 14.5 16.28125  Q 15.578125 12.25 17.453125 9.859375  Q 19.34375 7.46875 21.90625 6.484375  Q 24.46875 5.515625 27.484375 5.515625  Q 30.859375 5.515625 33.59375 6.46875  Q 36.328125 7.421875 38.234375 9.8125  Q 40.140625 12.203125 41.15625 16.25  Q 42.1875 20.3125 42.1875 26.46875  z " id="LiberationSans-111"/>
      <path d="M 51.421875 26.65625  Q 51.421875 20.65625 50.4375 15.578125  Q 49.46875 10.5 47.1875 6.828125  Q 44.921875 3.171875 41.1875 1.09375  Q 37.453125 -0.984375 31.984375 -0.984375  Q 26.3125 -0.984375 22.0625 1.171875  Q 17.828125 3.328125 15.578125 8.203125  L 15.328125 8.203125  Q 15.375 8.109375 15.40625 7.328125  Q 15.4375 6.546875 15.453125 5.375  Q 15.484375 4.203125 15.5 2.75  Q 15.53125 1.3125 15.53125 -0.09375  L 15.53125 -20.75  L 6.734375 -20.75  L 6.734375 42.046875  Q 6.734375 43.953125 6.703125 45.703125  Q 6.6875 47.46875 6.640625 48.90625  Q 6.59375 50.34375 6.546875 51.359375  Q 6.5 52.390625 6.453125 52.828125  L 14.9375 52.828125  Q 14.984375 52.6875 15.0625 51.796875  Q 15.140625 50.921875 15.203125 49.671875  Q 15.28125 48.4375 15.359375 47.015625  Q 15.4375 45.609375 15.4375 44.34375  L 15.625 44.34375  Q 16.84375 46.875 18.40625 48.65625  Q 19.96875 50.4375 21.96875 51.578125  Q 23.96875 52.734375 26.4375 53.25  Q 28.90625 53.765625 31.984375 53.765625  Q 37.453125 53.765625 41.1875 51.8125  Q 44.921875 49.859375 47.1875 46.3125  Q 49.46875 42.78125 50.4375 37.765625  Q 51.421875 32.765625 51.421875 26.65625  z M 42.1875 26.46875  Q 42.1875 31.34375 41.59375 35.15625  Q 41.015625 38.96875 39.578125 41.59375  Q 38.140625 44.234375 35.734375 45.59375  Q 33.34375 46.96875 29.734375 46.96875  Q 26.8125 46.96875 24.21875 46.140625  Q 21.625 45.3125 19.703125 42.96875  Q 17.78125 40.625 16.65625 36.5  Q 15.53125 32.375 15.53125 25.78125  Q 15.53125 20.171875 16.453125 16.28125  Q 17.390625 12.40625 19.171875 10.015625  Q 20.953125 7.625 23.578125 6.5625  Q 26.21875 5.515625 29.640625 5.515625  Q 33.296875 5.515625 35.71875 6.921875  Q 38.140625 8.34375 39.578125 11.03125  Q 41.015625 13.71875 41.59375 17.59375  Q 42.1875 21.484375 42.1875 26.46875  z " id="LiberationSans-112"/>
      <path d="M 46.390625 14.59375  Q 46.390625 10.890625 44.9375 7.984375  Q 43.5 5.078125 40.765625 3.09375  Q 38.03125 1.125 34.046875 0.0625  Q 30.078125 -0.984375 24.953125 -0.984375  Q 20.359375 -0.984375 16.671875 -0.265625  Q 12.984375 0.4375 10.203125 2  Q 7.421875 3.5625 5.53125 6.125  Q 3.65625 8.6875 2.78125 12.40625  L 10.546875 13.921875  Q 11.671875 9.671875 15.1875 7.6875  Q 18.703125 5.71875 24.953125 5.71875  Q 27.78125 5.71875 30.140625 6.109375  Q 32.515625 6.5 34.21875 7.453125  Q 35.9375 8.40625 36.890625 9.984375  Q 37.84375 11.578125 37.84375 13.921875  Q 37.84375 16.3125 36.71875 17.84375  Q 35.59375 19.390625 33.59375 20.40625  Q 31.59375 21.4375 28.734375 22.1875  Q 25.875 22.953125 22.46875 23.875  Q 19.28125 24.703125 16.15625 25.734375  Q 13.03125 26.765625 10.515625 28.4375  Q 8.015625 30.125 6.453125 32.609375  Q 4.890625 35.109375 4.890625 38.875  Q 4.890625 46.09375 10.03125 49.875  Q 15.1875 53.65625 25.046875 53.65625  Q 33.796875 53.65625 38.9375 50.578125  Q 44.09375 47.515625 45.453125 40.71875  L 37.546875 39.75  Q 37.109375 41.796875 35.9375 43.1875  Q 34.765625 44.578125 33.109375 45.4375  Q 31.453125 46.296875 29.375 46.65625  Q 27.296875 47.015625 25.046875 47.015625  Q 19.09375 47.015625 16.25 45.203125  Q 13.421875 43.40625 13.421875 39.75  Q 13.421875 37.59375 14.46875 36.203125  Q 15.53125 34.8125 17.40625 33.859375  Q 19.28125 32.90625 21.921875 32.203125  Q 24.5625 31.5 27.734375 30.71875  Q 29.828125 30.171875 32.03125 29.5625  Q 34.234375 28.953125 36.296875 28.09375  Q 38.375 27.25 40.203125 26.09375  Q 42.046875 24.953125 43.40625 23.34375  Q 44.78125 21.734375 45.578125 19.578125  Q 46.390625 17.4375 46.390625 14.59375  z " id="LiberationSans-115"/>
     </defs>
     <g transform="translate(188.376562 335.198125)scale(0.12 -0.12)">
      <use xlink:href="#LiberationSans-82"/>
      <use x="72.216797" xlink:href="#LiberationSans-101"/>
      <use x="127.832031" xlink:href="#LiberationSans-113"/>
      <use x="183.447266" xlink:href="#LiberationSans-117"/>
      <use x="239.0625" xlink:href="#LiberationSans-105"/>
      <use x="261.279297" xlink:href="#LiberationSans-114"/>
      <use x="294.580078" xlink:href="#LiberationSans-101"/>
      <use x="350.195312" xlink:href="#LiberationSans-100"/>
      <use x="405.810547" xlink:href="#LiberationSans-32"/>
      <use x="433.59375" xlink:href="#LiberationSans-99"/>
      <use x="483.59375" xlink:href="#LiberationSans-104"/>
      <use x="539.208984" xlink:href="#LiberationSans-111"/>
      <use x="594.824219" xlink:href="#LiberationSans-112"/>
      <use x="650.439453" xlink:href="#LiberationSans-115"/>
     </g>
    </g>
   </g>
   <g id="matplotlib.axis_2">
    <g id="ytick_1">
     <g id="line2d_11">
      <path clip-path="url(#pc7b6969070)" d="M 7.2 306.18  L 453.6 306.18  " style="fill:none;stroke:#ffffff;stroke-linecap:round;"/>
     </g>
     <g id="line2d_12"/>
     <g id="text_7">
      <!-- 0 -->
      <g transform="translate(460.6 309.803437)scale(0.1 -0.1)">
       <use xlink:href="#LiberationSans-48"/>
      </g>
     </g>
    </g>
    <g id="ytick_2">
     <g id="line2d_13">
      <path clip-path="url(#pc7b6969070)" d="M 7.2 277.705714  L 453.6 277.705714  " style="fill:none;stroke:#ffffff;stroke-linecap:round;"/>
     </g>
     <g id="line2d_14"/>
     <g id="text_8">
      <!-- 10 -->
      <g transform="translate(460.6 281.329152)scale(0.1 -0.1)">
       <use xlink:href="#LiberationSans-49"/>
       <use x="55.615234" xlink:href="#LiberationSans-48"/>
      </g>
     </g>
    </g>
    <g id="ytick_3">
     <g id="line2d_15">
      <path clip-path="url(#pc7b6969070)" d="M 7.2 249.231429  L 453.6 249.231429  " style="fill:none;stroke:#ffffff;stroke-linecap:round;"/>
     </g>
     <g id="line2d_16"/>
     <g id="text_9">
      <!-- 20 -->
      <g transform="translate(460.6 252.854866)scale(0.1 -0.1)">
       <use xlink:href="#LiberationSans-50"/>
       <use x="55.615234" xlink:href="#LiberationSans-48"/>
      </g>
     </g>
    </g>
    <g id="ytick_4">
     <g id="line2d_17">
      <path clip-path="url(#pc7b6969070)" d="M 7.2 220.757143  L 453.6 220.757143  " style="fill:none;stroke:#ffffff;stroke-linecap:round;"/>
     </g>
     <g id="line2d_18"/>
     <g id="text_10">
      <!-- 30 -->
      <defs>
       <path d="M 51.21875 19  Q 51.21875 14.265625 49.671875 10.546875  Q 48.140625 6.84375 45.1875 4.265625  Q 42.234375 1.703125 37.859375 0.359375  Q 33.5 -0.984375 27.875 -0.984375  Q 21.484375 -0.984375 17.109375 0.609375  Q 12.75 2.203125 9.90625 4.8125  Q 7.078125 7.421875 5.65625 10.765625  Q 4.25 14.109375 3.8125 17.671875  L 12.890625 18.5  Q 13.28125 15.765625 14.328125 13.515625  Q 15.375 11.28125 17.1875 9.671875  Q 19 8.0625 21.625 7.171875  Q 24.265625 6.296875 27.875 6.296875  Q 34.515625 6.296875 38.296875 9.5625  Q 42.09375 12.84375 42.09375 19.28125  Q 42.09375 23.09375 40.40625 25.40625  Q 38.71875 27.734375 36.203125 29.03125  Q 33.6875 30.328125 30.734375 30.765625  Q 27.78125 31.203125 25.296875 31.203125  L 20.3125 31.203125  L 20.3125 38.8125  L 25.09375 38.8125  Q 27.59375 38.8125 30.265625 39.328125  Q 32.953125 39.84375 35.171875 41.1875  Q 37.40625 42.53125 38.84375 44.828125  Q 40.28125 47.125 40.28125 50.6875  Q 40.28125 56.203125 37.03125 59.390625  Q 33.796875 62.59375 27.390625 62.59375  Q 21.578125 62.59375 17.984375 59.609375  Q 14.40625 56.640625 13.8125 51.21875  L 4.984375 51.90625  Q 5.515625 56.453125 7.46875 59.8125  Q 9.421875 63.1875 12.421875 65.40625  Q 15.4375 67.625 19.28125 68.71875  Q 23.140625 69.828125 27.484375 69.828125  Q 33.25 69.828125 37.390625 68.375  Q 41.546875 66.9375 44.1875 64.46875  Q 46.828125 62.015625 48.0625 58.6875  Q 49.3125 55.375 49.3125 51.609375  Q 49.3125 48.578125 48.484375 45.9375  Q 47.65625 43.3125 45.890625 41.203125  Q 44.140625 39.109375 41.421875 37.59375  Q 38.71875 36.078125 34.90625 35.296875  L 34.90625 35.109375  Q 39.0625 34.671875 42.140625 33.21875  Q 45.21875 31.78125 47.21875 29.625  Q 49.21875 27.484375 50.21875 24.75  Q 51.21875 22.015625 51.21875 19  z " id="LiberationSans-51"/>
      </defs>
      <g transform="translate(460.6 224.38058)scale(0.1 -0.1)">
       <use xlink:href="#LiberationSans-51"/>
       <use x="55.615234" xlink:href="#LiberationSans-48"/>
      </g>
     </g>
    </g>
    <g id="ytick_5">
     <g id="line2d_19">
      <path clip-path="url(#pc7b6969070)" d="M 7.2 192.282857  L 453.6 192.282857  " style="fill:none;stroke:#ffffff;stroke-linecap:round;"/>
     </g>
     <g id="line2d_20"/>
     <g id="text_11">
      <!-- 40 -->
      <g transform="translate(460.6 195.906295)scale(0.1 -0.1)">
       <use xlink:href="#LiberationSans-52"/>
       <use x="55.615234" xlink:href="#LiberationSans-48"/>
      </g>
     </g>
    </g>
    <g id="ytick_6">
     <g id="line2d_21">
      <path clip-path="url(#pc7b6969070)" d="M 7.2 163.808571  L 453.6 163.808571  " style="fill:none;stroke:#ffffff;stroke-linecap:round;"/>
     </g>
     <g id="line2d_22"/>
     <g id="text_12">
      <!-- 50 -->
      <defs>
       <path d="M 51.421875 22.40625  Q 51.421875 17.234375 49.859375 12.9375  Q 48.296875 8.640625 45.21875 5.53125  Q 42.140625 2.4375 37.578125 0.71875  Q 33.015625 -0.984375 27 -0.984375  Q 21.578125 -0.984375 17.546875 0.28125  Q 13.53125 1.5625 10.734375 3.78125  Q 7.953125 6 6.3125 8.984375  Q 4.6875 11.96875 4 15.375  L 12.890625 16.40625  Q 13.421875 14.453125 14.390625 12.625  Q 15.375 10.796875 17.0625 9.34375  Q 18.75 7.90625 21.21875 7.046875  Q 23.6875 6.203125 27.203125 6.203125  Q 30.609375 6.203125 33.390625 7.25  Q 36.1875 8.296875 38.15625 10.34375  Q 40.140625 12.40625 41.203125 15.375  Q 42.28125 18.359375 42.28125 22.21875  Q 42.28125 25.390625 41.25 28.046875  Q 40.234375 30.71875 38.328125 32.640625  Q 36.421875 34.578125 33.65625 35.640625  Q 30.90625 36.71875 27.390625 36.71875  Q 25.203125 36.71875 23.34375 36.328125  Q 21.484375 35.9375 19.890625 35.25  Q 18.3125 34.578125 17.015625 33.671875  Q 15.71875 32.765625 14.59375 31.78125  L 6 31.78125  L 8.296875 68.796875  L 47.40625 68.796875  L 47.40625 61.328125  L 16.3125 61.328125  L 14.984375 39.5  Q 17.328125 41.3125 20.84375 42.59375  Q 24.359375 43.890625 29.203125 43.890625  Q 34.328125 43.890625 38.421875 42.328125  Q 42.53125 40.765625 45.40625 37.90625  Q 48.296875 35.0625 49.859375 31.109375  Q 51.421875 27.15625 51.421875 22.40625  z " id="LiberationSans-53"/>
      </defs>
      <g transform="translate(460.6 167.432009)scale(0.1 -0.1)">
       <use xlink:href="#LiberationSans-53"/>
       <use x="55.615234" xlink:href="#LiberationSans-48"/>
      </g>
     </g>
    </g>
    <g id="ytick_7">
     <g id="line2d_23">
      <path clip-path="url(#pc7b6969070)" d="M 7.2 135.334286  L 453.6 135.334286  " style="fill:none;stroke:#ffffff;stroke-linecap:round;"/>
     </g>
     <g id="line2d_24"/>
     <g id="text_13">
      <!-- 60 -->
      <g transform="translate(460.6 138.957723)scale(0.1 -0.1)">
       <use xlink:href="#LiberationSans-54"/>
       <use x="55.615234" xlink:href="#LiberationSans-48"/>
      </g>
     </g>
    </g>
    <g id="ytick_8">
     <g id="line2d_25">
      <path clip-path="url(#pc7b6969070)" d="M 7.2 106.86  L 453.6 106.86  " style="fill:none;stroke:#ffffff;stroke-linecap:round;"/>
     </g>
     <g id="line2d_26"/>
     <g id="text_14">
      <!-- 70 -->
      <defs>
       <path d="M 50.59375 61.671875  Q 45.40625 53.765625 41.0625 46.453125  Q 36.71875 39.15625 33.59375 31.75  Q 30.46875 24.359375 28.734375 16.578125  Q 27 8.796875 27 0  L 17.828125 0  Q 17.828125 8.25 19.78125 16.1875  Q 21.734375 24.125 25.046875 31.765625  Q 28.375 39.40625 32.765625 46.78125  Q 37.15625 54.15625 42.09375 61.328125  L 5.125 61.328125  L 5.125 68.796875  L 50.59375 68.796875  z " id="LiberationSans-55"/>
      </defs>
      <g transform="translate(460.6 110.483437)scale(0.1 -0.1)">
       <use xlink:href="#LiberationSans-55"/>
       <use x="55.615234" xlink:href="#LiberationSans-48"/>
      </g>
     </g>
    </g>
    <g id="ytick_9">
     <g id="line2d_27">
      <path clip-path="url(#pc7b6969070)" d="M 7.2 78.385714  L 453.6 78.385714  " style="fill:none;stroke:#ffffff;stroke-linecap:round;"/>
     </g>
     <g id="line2d_28"/>
     <g id="text_15">
      <!-- 80 -->
      <g transform="translate(460.6 82.009152)scale(0.1 -0.1)">
       <use xlink:href="#LiberationSans-56"/>
       <use x="55.615234" xlink:href="#LiberationSans-48"/>
      </g>
     </g>
    </g>
    <g id="ytick_10">
     <g id="line2d_29">
      <path clip-path="url(#pc7b6969070)" d="M 7.2 49.911429  L 453.6 49.911429  " style="fill:none;stroke:#ffffff;stroke-linecap:round;"/>
     </g>
     <g id="line2d_30"/>
     <g id="text_16">
      <!-- 90 -->
      <defs>
       <path d="M 50.875 35.796875  Q 50.875 26.609375 49.140625 19.703125  Q 47.40625 12.796875 44.1875 8.203125  Q 40.96875 3.609375 36.34375 1.3125  Q 31.734375 -0.984375 25.984375 -0.984375  Q 22.015625 -0.984375 18.84375 -0.171875  Q 15.671875 0.640625 13.171875 2.34375  Q 10.6875 4.046875 8.921875 6.78125  Q 7.171875 9.515625 6.109375 13.375  L 14.5 14.703125  Q 15.875 10.25 18.78125 8.171875  Q 21.6875 6.109375 26.125 6.109375  Q 29.6875 6.109375 32.640625 7.78125  Q 35.59375 9.46875 37.671875 12.84375  Q 39.75 16.21875 40.921875 21.296875  Q 42.09375 26.375 42.1875 33.203125  Q 41.15625 30.90625 39.375 29.09375  Q 37.59375 27.296875 35.328125 26.046875  Q 33.0625 24.8125 30.421875 24.140625  Q 27.78125 23.484375 25.09375 23.484375  Q 20.40625 23.484375 16.625 25.171875  Q 12.84375 26.859375 10.203125 29.875  Q 7.5625 32.90625 6.125 37.171875  Q 4.6875 41.453125 4.6875 46.6875  Q 4.6875 52 6.21875 56.296875  Q 7.765625 60.59375 10.6875 63.59375  Q 13.625 66.609375 17.890625 68.21875  Q 22.171875 69.828125 27.59375 69.828125  Q 39.0625 69.828125 44.96875 61.328125  Q 50.875 52.828125 50.875 35.796875  z M 41.3125 44.28125  Q 41.3125 48.09375 40.40625 51.453125  Q 39.5 54.828125 37.71875 57.3125  Q 35.9375 59.8125 33.328125 61.25  Q 30.71875 62.703125 27.296875 62.703125  Q 24.125 62.703125 21.578125 61.578125  Q 19.046875 60.453125 17.28125 58.375  Q 15.53125 56.296875 14.578125 53.3125  Q 13.625 50.34375 13.625 46.6875  Q 13.625 43.21875 14.46875 40.234375  Q 15.328125 37.25 17.03125 35.078125  Q 18.75 32.90625 21.28125 31.65625  Q 23.828125 30.421875 27.203125 30.421875  Q 29.640625 30.421875 32.15625 31.25  Q 34.671875 32.078125 36.6875 33.78125  Q 38.71875 35.5 40.015625 38.109375  Q 41.3125 40.71875 41.3125 44.28125  z " id="LiberationSans-57"/>
      </defs>
      <g transform="translate(460.6 53.534866)scale(0.1 -0.1)">
       <use xlink:href="#LiberationSans-57"/>
       <use x="55.615234" xlink:href="#LiberationSans-48"/>
      </g>
     </g>
    </g>
    <g id="ytick_11">
     <g id="line2d_31">
      <path clip-path="url(#pc7b6969070)" d="M 7.2 21.437143  L 453.6 21.437143  " style="fill:none;stroke:#ffffff;stroke-linecap:round;"/>
     </g>
     <g id="line2d_32"/>
     <g id="text_17">
      <!-- 100 -->
      <g transform="translate(460.6 25.06058)scale(0.1 -0.1)">
       <use xlink:href="#LiberationSans-49"/>
       <use x="55.615234" xlink:href="#LiberationSans-48"/>
       <use x="111.230469" xlink:href="#LiberationSans-48"/>
      </g>
     </g>
    </g>
    <g id="text_18">
     <!-- Number of blocks -->
     <defs>
      <path d="M 52.828125 0  L 16.015625 58.59375  Q 16.109375 56.203125 16.265625 53.859375  Q 16.359375 51.859375 16.421875 49.625  Q 16.5 47.40625 16.5 45.703125  L 16.5 0  L 8.203125 0  L 8.203125 68.796875  L 19.046875 68.796875  L 56.25 9.8125  Q 56.109375 12.203125 55.953125 14.59375  Q 55.859375 16.65625 55.765625 19.0625  Q 55.671875 21.484375 55.671875 23.6875  L 55.671875 68.796875  L 64.0625 68.796875  L 64.0625 0  z " id="LiberationSans-78"/>
      <path d="M 37.5 0  L 37.5 33.5  Q 37.5 37.359375 37.015625 39.9375  Q 36.53125 42.53125 35.375 44.109375  Q 34.234375 45.703125 32.375 46.359375  Q 30.515625 47.015625 27.828125 47.015625  Q 25.046875 47.015625 22.796875 45.921875  Q 20.5625 44.828125 18.96875 42.75  Q 17.390625 40.671875 16.53125 37.625  Q 15.671875 34.578125 15.671875 30.609375  L 15.671875 0  L 6.9375 0  L 6.9375 41.546875  Q 6.9375 43.21875 6.90625 45.046875  Q 6.890625 46.875 6.828125 48.5  Q 6.78125 50.140625 6.734375 51.3125  Q 6.6875 52.484375 6.640625 52.828125  L 14.9375 52.828125  Q 14.984375 52.59375 15.03125 51.515625  Q 15.09375 50.4375 15.15625 49.046875  Q 15.234375 47.65625 15.28125 46.21875  Q 15.328125 44.78125 15.328125 43.796875  L 15.484375 43.796875  Q 16.65625 46.09375 18.015625 47.953125  Q 19.390625 49.8125 21.21875 51.09375  Q 23.046875 52.390625 25.40625 53.09375  Q 27.78125 53.8125 30.90625 53.8125  Q 36.921875 53.8125 40.40625 51.421875  Q 43.890625 49.03125 45.265625 43.796875  L 45.40625 43.796875  Q 46.578125 46.09375 48.046875 47.953125  Q 49.515625 49.8125 51.46875 51.09375  Q 53.421875 52.390625 55.859375 53.09375  Q 58.296875 53.8125 61.421875 53.8125  Q 65.4375 53.8125 68.328125 52.734375  Q 71.234375 51.65625 73.09375 49.40625  Q 74.953125 47.171875 75.828125 43.625  Q 76.703125 40.09375 76.703125 35.203125  L 76.703125 0  L 68.015625 0  L 68.015625 33.5  Q 68.015625 37.359375 67.53125 39.9375  Q 67.046875 42.53125 65.890625 44.109375  Q 64.75 45.703125 62.890625 46.359375  Q 61.03125 47.015625 58.34375 47.015625  Q 55.5625 47.015625 53.3125 45.96875  Q 51.078125 44.921875 49.484375 42.875  Q 47.90625 40.828125 47.046875 37.75  Q 46.1875 34.671875 46.1875 30.609375  L 46.1875 0  z " id="LiberationSans-109"/>
      <path d="M 51.421875 26.65625  Q 51.421875 -0.984375 31.984375 -0.984375  Q 25.984375 -0.984375 22 1.1875  Q 18.015625 3.375 15.53125 8.203125  L 15.4375 8.203125  Q 15.4375 6.9375 15.359375 5.5625  Q 15.28125 4.203125 15.203125 3.03125  Q 15.140625 1.859375 15.0625 1.03125  Q 14.984375 0.203125 14.9375 0  L 6.453125 0  Q 6.5 0.4375 6.546875 1.484375  Q 6.59375 2.546875 6.640625 4  Q 6.6875 5.46875 6.703125 7.21875  Q 6.734375 8.984375 6.734375 10.890625  L 6.734375 72.46875  L 15.53125 72.46875  L 15.53125 51.8125  Q 15.53125 50.34375 15.5 49  Q 15.484375 47.65625 15.4375 46.625  Q 15.375 45.40625 15.328125 44.34375  L 15.53125 44.34375  Q 17.96875 49.421875 22 51.609375  Q 26.03125 53.8125 31.984375 53.8125  Q 42 53.8125 46.703125 47.0625  Q 51.421875 40.328125 51.421875 26.65625  z M 42.1875 26.375  Q 42.1875 31.84375 41.5 35.75  Q 40.828125 39.65625 39.3125 42.15625  Q 37.796875 44.671875 35.453125 45.84375  Q 33.109375 47.015625 29.734375 47.015625  Q 26.265625 47.015625 23.609375 45.890625  Q 20.953125 44.78125 19.171875 42.28125  Q 17.390625 39.796875 16.453125 35.734375  Q 15.53125 31.6875 15.53125 25.828125  Q 15.53125 20.171875 16.453125 16.3125  Q 17.390625 12.453125 19.171875 10.03125  Q 20.953125 7.625 23.578125 6.5625  Q 26.21875 5.515625 29.640625 5.515625  Q 32.859375 5.515625 35.203125 6.640625  Q 37.546875 7.765625 39.109375 10.25  Q 40.671875 12.75 41.421875 16.71875  Q 42.1875 20.703125 42.1875 26.375  z " id="LiberationSans-98"/>
      <path d="M 17.625 46.4375  L 17.625 0  L 8.84375 0  L 8.84375 46.4375  L 1.421875 46.4375  L 1.421875 52.828125  L 8.84375 52.828125  L 8.84375 58.796875  Q 8.84375 61.671875 9.375 64.140625  Q 9.90625 66.609375 11.34375 68.4375  Q 12.796875 70.265625 15.28125 71.3125  Q 17.78125 72.359375 21.734375 72.359375  Q 23.296875 72.359375 24.96875 72.21875  Q 26.65625 72.078125 27.9375 71.78125  L 27.9375 65.09375  Q 27.09375 65.234375 26 65.359375  Q 24.90625 65.484375 24.03125 65.484375  Q 22.078125 65.484375 20.828125 64.9375  Q 19.578125 64.40625 18.875 63.40625  Q 18.171875 62.40625 17.890625 60.9375  Q 17.625 59.46875 17.625 57.5625  L 17.625 52.828125  L 27.9375 52.828125  L 27.9375 46.4375  z " id="LiberationSans-102"/>
      <path d="M 6.734375 0  L 6.734375 72.46875  L 15.53125 72.46875  L 15.53125 0  z " id="LiberationSans-108"/>
      <path d="M 39.84375 0  L 21.96875 24.125  L 15.53125 18.796875  L 15.53125 0  L 6.734375 0  L 6.734375 72.46875  L 15.53125 72.46875  L 15.53125 27.203125  L 38.71875 52.828125  L 49.03125 52.828125  L 27.59375 30.125  L 50.140625 0  z " id="LiberationSans-107"/>
     </defs>
     <g transform="translate(489.979062 203.371875)rotate(-90)scale(0.12 -0.12)">
      <use xlink:href="#LiberationSans-78"/>
      <use x="72.216797" xlink:href="#LiberationSans-117"/>
      <use x="127.832031" xlink:href="#LiberationSans-109"/>
      <use x="211.132812" xlink:href="#LiberationSans-98"/>
      <use x="266.748047" xlink:href="#LiberationSans-101"/>
      <use x="322.363281" xlink:href="#LiberationSans-114"/>
      <use x="355.664062" xlink:href="#LiberationSans-32"/>
      <use x="383.447266" xlink:href="#LiberationSans-111"/>
      <use x="439.0625" xlink:href="#LiberationSans-102"/>
      <use x="466.845703" xlink:href="#LiberationSans-32"/>
      <use x="494.628906" xlink:href="#LiberationSans-98"/>
      <use x="550.244141" xlink:href="#LiberationSans-108"/>
      <use x="572.460938" xlink:href="#LiberationSans-111"/>
      <use x="628.076172" xlink:href="#LiberationSans-99"/>
      <use x="678.076172" xlink:href="#LiberationSans-107"/>
      <use x="728.076172" xlink:href="#LiberationSans-115"/>
     </g>
    </g>
   </g>
   <g id="line2d_33">
    <path clip-path="url(#pc7b6969070)" d="M 2.690909 306.18  L 2.690909 303.332571  L 7.2 303.332571  L 7.2 300.485143  L 11.709091 300.485143  L 11.709091 297.637714  L 16.218182 297.637714  L 16.218182 294.790286  L 20.727273 294.790286  L 20.727273 291.942857  L 25.236364 291.942857  L 25.236364 289.095429  L 29.745455 289.095429  L 29.745455 286.248  L 34.254545 286.248  L 34.254545 283.400571  L 38.763636 283.400571  L 38.763636 280.553143  L 43.272727 280.553143  L 43.272727 277.705714  L 47.781818 277.705714  L 47.781818 274.858286  L 52.290909 274.858286  L 52.290909 272.010857  L 56.8 272.010857  L 56.8 269.163429  L 61.309091 269.163429  L 61.309091 266.316  L 65.818182 266.316  L 65.818182 263.468571  L 70.327273 263.468571  L 70.327273 260.621143  L 74.836364 260.621143  L 74.836364 257.773714  L 79.345455 257.773714  L 79.345455 254.926286  L 83.854545 254.926286  L 83.854545 252.078857  L 88.363636 252.078857  L 88.363636 249.231429  L 92.872727 249.231429  L 92.872727 246.384  L 97.381818 246.384  L 97.381818 243.536571  L 101.890909 243.536571  L 101.890909 240.689143  L 106.4 240.689143  L 106.4 237.841714  L 110.909091 237.841714  L 110.909091 234.994286  L 115.418182 234.994286  L 115.418182 232.146857  L 119.927273 232.146857  L 119.927273 229.299429  L 124.436364 229.299429  L 124.436364 226.452  L 128.945455 226.452  L 128.945455 223.604571  L 133.454545 223.604571  L 133.454545 220.757143  L 137.963636 220.757143  L 137.963636 217.909714  L 142.472727 217.909714  L 142.472727 215.062286  L 146.981818 215.062286  L 146.981818 212.214857  L 151.490909 212.214857  L 151.490909 209.367429  L 156 209.367429  L 156 206.52  L 160.509091 206.52  L 160.509091 203.672571  L 165.018182 203.672571  L 165.018182 200.825143  L 169.527273 200.825143  L 169.527273 197.977714  L 174.036364 197.977714  L 174.036364 195.130286  L 178.545455 195.130286  L 178.545455 192.282857  L 183.054545 192.282857  L 183.054545 189.435429  L 187.563636 189.435429  L 187.563636 186.588  L 192.072727 186.588  L 192.072727 183.740571  L 196.581818 183.740571  L 196.581818 180.893143  L 201.090909 180.893143  L 201.090909 178.045714  L 205.6 178.045714  L 205.6 175.198286  L 210.109091 175.198286  L 210.109091 172.350857  L 214.618182 172.350857  L 214.618182 169.503429  L 219.127273 169.503429  L 219.127273 166.656  L 223.636364 166.656  L 223.636364 163.808571  L 228.145455 163.808571  L 228.145455 160.961143  L 232.654545 160.961143  L 232.654545 158.113714  L 237.163636 158.113714  L 237.163636 155.266286  L 241.672727 155.266286  L 241.672727 152.418857  L 246.181818 152.418857  L 246.181818 149.571429  L 250.690909 149.571429  L 250.690909 146.724  L 255.2 146.724  L 255.2 143.876571  L 259.709091 143.876571  L 259.709091 141.029143  L 264.218182 141.029143  L 264.218182 138.181714  L 268.727273 138.181714  L 268.727273 135.334286  L 273.236364 135.334286  L 273.236364 132.486857  L 277.745455 132.486857  L 277.745455 129.639429  L 282.254545 129.639429  L 282.254545 126.792  L 286.763636 126.792  L 286.763636 123.944571  L 291.272727 123.944571  L 291.272727 121.097143  L 295.781818 121.097143  L 295.781818 118.249714  L 300.290909 118.249714  L 300.290909 115.402286  L 304.8 115.402286  L 304.8 112.554857  L 309.309091 112.554857  L 309.309091 109.707429  L 313.818182 109.707429  L 313.818182 106.86  L 318.327273 106.86  L 318.327273 104.012571  L 322.836364 104.012571  L 322.836364 101.165143  L 327.345455 101.165143  L 327.345455 98.317714  L 331.854545 98.317714  L 331.854545 95.470286  L 336.363636 95.470286  L 336.363636 92.622857  L 340.872727 92.622857  L 340.872727 89.775429  L 345.381818 89.775429  L 345.381818 86.928  L 349.890909 86.928  L 349.890909 84.080571  L 354.4 84.080571  L 354.4 81.233143  L 358.909091 81.233143  L 358.909091 78.385714  L 363.418182 78.385714  L 363.418182 75.538286  L 367.927273 75.538286  L 367.927273 72.690857  L 372.436364 72.690857  L 372.436364 69.843429  L 376.945455 69.843429  L 376.945455 66.996  L 381.454545 66.996  L 381.454545 64.148571  L 385.963636 64.148571  L 385.963636 61.301143  L 390.472727 61.301143  L 390.472727 58.453714  L 394.981818 58.453714  L 394.981818 55.606286  L 399.490909 55.606286  L 399.490909 52.758857  L 404 52.758857  L 404 49.911429  L 408.509091 49.911429  L 408.509091 47.064  L 413.018182 47.064  L 413.018182 44.216571  L 417.527273 44.216571  L 417.527273 41.369143  L 422.036364 41.369143  L 422.036364 38.521714  L 426.545455 38.521714  L 426.545455 35.674286  L 431.054545 35.674286  L 431.054545 32.826857  L 435.563636 32.826857  L 435.563636 29.979429  L 440.072727 29.979429  L 440.072727 27.132  L 444.581818 27.132  L 444.581818 24.284571  L 449.090909 24.284571  L 449.090909 21.437143  L 453.6 21.437143  L 453.6 18.589714  L 458.109091 18.589714  L 458.109091 18.589714  " style="fill:none;stroke:#e24a33;stroke-linecap:round;stroke-width:1.75;"/>
   </g>
   <g id="line2d_34">
    <path clip-path="url(#pc7b6969070)" d="M 2.690909 306.18  L 2.690909 303.332571  L 7.2 303.332571  L 7.2 300.485143  L 11.709091 300.485143  L 11.709091 297.637714  L 16.218182 297.637714  L 16.218182 294.790286  L 20.727273 294.790286  L 20.727273 291.942857  L 25.236364 291.942857  L 25.236364 289.095429  L 29.745455 289.095429  L 29.745455 286.248  L 34.254545 286.248  L 34.254545 283.400571  L 38.763636 283.400571  L 38.763636 280.553143  L 43.272727 280.553143  L 43.272727 277.705714  L 52.290909 277.705714  L 52.290909 274.858286  L 56.8 274.858286  L 56.8 272.010857  L 61.309091 272.010857  L 61.309091 269.163429  L 65.818182 269.163429  L 65.818182 266.316  L 70.327273 266.316  L 70.327273 263.468571  L 74.836364 263.468571  L 74.836364 260.621143  L 79.345455 260.621143  L 79.345455 257.773714  L 88.363636 257.773714  L 88.363636 254.926286  L 92.872727 254.926286  L 92.872727 252.078857  L 97.381818 252.078857  L 97.381818 249.231429  L 101.890909 249.231429  L 101.890909 246.384  L 110.909091 246.384  L 110.909091 243.536571  L 115.418182 243.536571  L 115.418182 240.689143  L 119.927273 240.689143  L 119.927273 237.841714  L 124.436364 237.841714  L 124.436364 234.994286  L 133.454545 234.994286  L 133.454545 232.146857  L 137.963636 232.146857  L 137.963636 229.299429  L 142.472727 229.299429  L 142.472727 226.452  L 151.490909 226.452  L 151.490909 223.604571  L 156 223.604571  L 156 220.757143  L 160.509091 220.757143  L 160.509091 217.909714  L 169.527273 217.909714  L 169.527273 215.062286  L 174.036364 215.062286  L 174.036364 212.214857  L 183.054545 212.214857  L 183.054545 209.367429  L 187.563636 209.367429  L 187.563636 206.52  L 196.581818 206.52  L 196.581818 203.672571  L 201.090909 203.672571  L 201.090909 200.825143  L 210.109091 200.825143  L 210.109091 197.977714  L 214.618182 197.977714  L 214.618182 195.130286  L 223.636364 195.130286  L 223.636364 192.282857  L 228.145455 192.282857  L 228.145455 189.435429  L 237.163636 189.435429  L 237.163636 186.588  L 241.672727 186.588  L 241.672727 183.740571  L 250.690909 183.740571  L 250.690909 180.893143  L 255.2 180.893143  L 255.2 178.045714  L 264.218182 178.045714  L 264.218182 175.198286  L 273.236364 175.198286  L 273.236364 172.350857  L 277.745455 172.350857  L 277.745455 169.503429  L 286.763636 169.503429  L 286.763636 166.656  L 295.781818 166.656  L 295.781818 163.808571  L 300.290909 163.808571  L 300.290909 160.961143  L 309.309091 160.961143  L 309.309091 158.113714  L 318.327273 158.113714  L 318.327273 155.266286  L 327.345455 155.266286  L 327.345455 152.418857  L 336.363636 152.418857  L 336.363636 149.571429  L 340.872727 149.571429  L 340.872727 146.724  L 349.890909 146.724  L 349.890909 143.876571  L 358.909091 143.876571  L 358.909091 141.029143  L 367.927273 141.029143  L 367.927273 138.181714  L 376.945455 138.181714  L 376.945455 135.334286  L 385.963636 135.334286  L 385.963636 132.486857  L 394.981818 132.486857  L 394.981818 129.639429  L 404 129.639429  L 404 126.792  L 413.018182 126.792  L 413.018182 123.944571  L 422.036364 123.944571  L 422.036364 121.097143  L 431.054545 121.097143  L 431.054545 118.249714  L 440.072727 118.249714  L 440.072727 115.402286  L 449.090909 115.402286  L 449.090909 112.554857  L 458.109091 112.554857  L 458.109091 112.554857  " style="fill:none;stroke:#348abd;stroke-linecap:round;stroke-width:1.75;"/>
   </g>
   <g id="line2d_35">
    <path clip-path="url(#pc7b6969070)" d="M 2.690909 306.18  L 2.690909 303.332571  L 7.2 303.332571  L 7.2 300.485143  L 11.709091 300.485143  L 11.709091 297.637714  L 16.218182 297.637714  L 16.218182 294.790286  L 20.727273 294.790286  L 20.727273 291.942857  L 25.236364 291.942857  L 25.236364 289.095429  L 34.254545 289.095429  L 34.254545 286.248  L 38.763636 286.248  L 38.763636 283.400571  L 43.272727 283.400571  L 43.272727 280.553143  L 47.781818 280.553143  L 47.781818 277.705714  L 56.8 277.705714  L 56.8 274.858286  L 61.309091 274.858286  L 61.309091 272.010857  L 70.327273 272.010857  L 70.327273 269.163429  L 74.836364 269.163429  L 74.836364 266.316  L 83.854545 266.316  L 83.854545 263.468571  L 88.363636 263.468571  L 88.363636 260.621143  L 97.381818 260.621143  L 97.381818 257.773714  L 101.890909 257.773714  L 101.890909 254.926286  L 110.909091 254.926286  L 110.909091 252.078857  L 119.927273 252.078857  L 119.927273 249.231429  L 128.945455 249.231429  L 128.945455 246.384  L 137.963636 246.384  L 137.963636 243.536571  L 146.981818 243.536571  L 146.981818 240.689143  L 156 240.689143  L 156 237.841714  L 165.018182 237.841714  L 165.018182 234.994286  L 174.036364 234.994286  L 174.036364 232.146857  L 187.563636 232.146857  L 187.563636 229.299429  L 196.581818 229.299429  L 196.581818 226.452  L 210.109091 226.452  L 210.109091 223.604571  L 219.127273 223.604571  L 219.127273 220.757143  L 232.654545 220.757143  L 232.654545 217.909714  L 241.672727 217.909714  L 241.672727 215.062286  L 255.2 215.062286  L 255.2 212.214857  L 268.727273 212.214857  L 268.727273 209.367429  L 282.254545 209.367429  L 282.254545 206.52  L 295.781818 206.52  L 295.781818 203.672571  L 309.309091 203.672571  L 309.309091 200.825143  L 327.345455 200.825143  L 327.345455 197.977714  L 340.872727 197.977714  L 340.872727 195.130286  L 358.909091 195.130286  L 358.909091 192.282857  L 372.436364 192.282857  L 372.436364 189.435429  L 390.472727 189.435429  L 390.472727 186.588  L 408.509091 186.588  L 408.509091 183.740571  L 426.545455 183.740571  L 426.545455 180.893143  L 444.581818 180.893143  L 444.581818 178.045714  L 458.109091 178.045714  L 458.109091 178.045714  " style="fill:none;stroke:#988ed5;stroke-linecap:round;stroke-width:1.75;"/>
   </g>
   <g id="line2d_36">
    <path clip-path="url(#pc7b6969070)" d="M 2.690909 306.18  L 2.690909 303.332571  L 7.2 303.332571  L 7.2 300.485143  L 11.709091 300.485143  L 11.709091 297.637714  L 16.218182 297.637714  L 16.218182 294.790286  L 25.236364 294.790286  L 25.236364 291.942857  L 29.745455 291.942857  L 29.745455 289.095429  L 38.763636 289.095429  L 38.763636 286.248  L 47.781818 286.248  L 47.781818 283.400571  L 56.8 283.400571  L 56.8 280.553143  L 65.818182 280.553143  L 65.818182 277.705714  L 74.836364 277.705714  L 74.836364 274.858286  L 88.363636 274.858286  L 88.363636 272.010857  L 101.890909 272.010857  L 101.890909 269.163429  L 115.418182 269.163429  L 115.418182 266.316  L 133.454545 266.316  L 133.454545 263.468571  L 151.490909 263.468571  L 151.490909 260.621143  L 174.036364 260.621143  L 174.036364 257.773714  L 196.581818 257.773714  L 196.581818 254.926286  L 219.127273 254.926286  L 219.127273 252.078857  L 246.181818 252.078857  L 246.181818 249.231429  L 277.745455 249.231429  L 277.745455 246.384  L 309.309091 246.384  L 309.309091 243.536571  L 345.381818 243.536571  L 345.381818 240.689143  L 385.963636 240.689143  L 385.963636 237.841714  L 431.054545 237.841714  L 431.054545 234.994286  L 458.109091 234.994286  L 458.109091 234.994286  " style="fill:none;stroke:#777777;stroke-linecap:round;stroke-width:1.75;"/>
   </g>
   <g id="line2d_37">
    <path clip-path="url(#pc7b6969070)" d="M 2.690909 303.332571  L 7.2 303.332571  L 7.2 300.485143  L 20.727273 300.485143  L 20.727273 297.637714  L 56.8 297.637714  L 56.8 294.790286  L 151.490909 294.790286  L 151.490909 291.942857  L 408.509091 291.942857  L 408.509091 289.095429  L 458.109091 289.095429  L 458.109091 289.095429  " style="fill:none;stroke:#fbc15e;stroke-linecap:round;stroke-width:1.75;"/>
   </g>
   <g id="patch_3">
    <path d="M 7.2 306.18  L 7.2 7.2  " style="fill:none;stroke:#ffffff;stroke-linecap:square;stroke-linejoin:miter;"/>
   </g>
   <g id="patch_4">
    <path d="M 453.6 306.18  L 453.6 7.2  " style="fill:none;stroke:#ffffff;stroke-linecap:square;stroke-linejoin:miter;"/>
   </g>
   <g id="patch_5">
    <path d="M 7.2 306.18  L 453.6 306.18  " style="fill:none;stroke:#ffffff;stroke-linecap:square;stroke-linejoin:miter;"/>
   </g>
   <g id="patch_6">
    <path d="M 7.2 7.2  L 453.6 7.2  " style="fill:none;stroke:#ffffff;stroke-linecap:square;stroke-linejoin:miter;"/>
   </g>
   <g id="legend_1">
    <g id="patch_7">
     <path d="M 14.2 86.809375  L 153.75625 86.809375  Q 155.75625 86.809375 155.75625 84.809375  L 155.75625 14.2  Q 155.75625 12.2 153.75625 12.2  L 14.2 12.2  Q 12.2 12.2 12.2 14.2  L 12.2 84.809375  Q 12.2 86.809375 14.2 86.809375  z " style="fill:#ffffff;stroke:#cccccc;stroke-linejoin:miter;stroke-width:0.5;"/>
    </g>
    <g id="line2d_38">
     <path d="M 16.2 19.946875  L 36.2 19.946875  " style="fill:none;stroke:#e24a33;stroke-linecap:round;stroke-width:1.75;"/>
    </g>
    <g id="line2d_39"/>
    <g id="text_19">
     <!-- Required chops (a = ) -->
     <defs>
      <path d="M 6.203125 25.984375  Q 6.203125 32.765625 7.21875 38.96875  Q 8.25 45.171875 10.4375 50.875  Q 12.640625 56.59375 16.0625 61.953125  Q 19.484375 67.328125 24.21875 72.46875  L 32.71875 72.46875  Q 28.125 67.328125 24.78125 61.9375  Q 21.4375 56.546875 19.28125 50.796875  Q 17.140625 45.0625 16.09375 38.859375  Q 15.046875 32.671875 15.046875 25.875  Q 15.046875 19.09375 16.09375 12.890625  Q 17.140625 6.6875 19.28125 0.921875  Q 21.4375 -4.828125 24.78125 -10.203125  Q 28.125 -15.578125 32.71875 -20.703125  L 24.21875 -20.703125  Q 19.484375 -15.578125 16.0625 -10.203125  Q 12.640625 -4.828125 10.4375 0.875  Q 8.25 6.59375 7.21875 12.765625  Q 6.203125 18.953125 6.203125 25.78125  z " id="LiberationSans-40"/>
      <path d="M 20.21875 -0.984375  Q 12.25 -0.984375 8.25 3.21875  Q 4.25 7.421875 4.25 14.75  Q 4.25 19.96875 6.21875 23.3125  Q 8.203125 26.65625 11.390625 28.5625  Q 14.59375 30.46875 18.6875 31.203125  Q 22.796875 31.9375 27.046875 32.03125  L 38.921875 32.234375  L 38.921875 35.109375  Q 38.921875 38.375 38.234375 40.671875  Q 37.546875 42.96875 36.125 44.375  Q 34.71875 45.796875 32.59375 46.453125  Q 30.46875 47.125 27.59375 47.125  Q 25.046875 47.125 23 46.75  Q 20.953125 46.390625 19.4375 45.4375  Q 17.921875 44.484375 16.984375 42.84375  Q 16.0625 41.21875 15.765625 38.71875  L 6.59375 39.546875  Q 7.078125 42.671875 8.4375 45.28125  Q 9.8125 47.90625 12.328125 49.796875  Q 14.84375 51.703125 18.625 52.75  Q 22.40625 53.8125 27.78125 53.8125  Q 37.75 53.8125 42.765625 49.234375  Q 47.796875 44.671875 47.796875 36.03125  L 47.796875 13.28125  Q 47.796875 9.375 48.828125 7.390625  Q 49.859375 5.421875 52.734375 5.421875  Q 53.46875 5.421875 54.203125 5.515625  Q 54.9375 5.609375 55.609375 5.765625  L 55.609375 0.296875  Q 53.953125 -0.09375 52.3125 -0.28125  Q 50.6875 -0.484375 48.828125 -0.484375  Q 46.34375 -0.484375 44.5625 0.171875  Q 42.78125 0.828125 41.65625 2.171875  Q 40.53125 3.515625 39.9375 5.484375  Q 39.359375 7.46875 39.203125 10.109375  L 38.921875 10.109375  Q 37.5 7.5625 35.8125 5.515625  Q 34.125 3.46875 31.875 2.03125  Q 29.640625 0.59375 26.78125 -0.1875  Q 23.921875 -0.984375 20.21875 -0.984375  z M 22.21875 5.609375  Q 26.421875 5.609375 29.5625 7.140625  Q 32.71875 8.6875 34.78125 11.078125  Q 36.859375 13.484375 37.890625 16.3125  Q 38.921875 19.140625 38.921875 21.734375  L 38.921875 26.078125  L 29.296875 25.875  Q 26.078125 25.828125 23.171875 25.40625  Q 20.265625 25 18.0625 23.78125  Q 15.875 22.5625 14.578125 20.359375  Q 13.28125 18.171875 13.28125 14.59375  Q 13.28125 10.296875 15.59375 7.953125  Q 17.921875 5.609375 22.21875 5.609375  z " id="LiberationSans-97"/>
      <path d="M 4.890625 41.796875  L 4.890625 49.03125  L 53.46875 49.03125  L 53.46875 41.796875  z M 4.890625 16.796875  L 4.890625 24.03125  L 53.46875 24.03125  L 53.46875 16.796875  z " id="LiberationSans-61"/>
      <path d="M 67.046875 28.8125  Q 67.046875 25 65.96875 21.546875  Q 64.890625 18.109375 62.890625 15.515625  Q 60.890625 12.9375 58.078125 11.421875  Q 55.28125 9.90625 51.859375 9.90625  Q 47.125 9.90625 43.015625 13.15625  Q 38.921875 16.40625 35.5 23.6875  Q 33.9375 20.609375 32.109375 18.109375  Q 30.28125 15.625 28.21875 13.859375  Q 26.171875 12.109375 23.96875 11.15625  Q 21.78125 10.203125 19.53125 10.203125  Q 16.15625 10.203125 13.34375 11.546875  Q 10.546875 12.890625 8.515625 15.328125  Q 6.5 17.78125 5.375 21.265625  Q 4.25 24.75 4.25 29.109375  Q 4.25 33.0625 5.3125 36.515625  Q 6.390625 39.984375 8.390625 42.515625  Q 10.40625 45.0625 13.234375 46.53125  Q 16.0625 48 19.53125 48  Q 24.125 48 28.21875 44.703125  Q 32.328125 41.40625 35.59375 34.1875  Q 37.109375 37.203125 38.9375 39.6875  Q 40.765625 42.1875 42.8125 43.96875  Q 44.875 45.75 47.171875 46.71875  Q 49.46875 47.703125 51.953125 47.703125  Q 55.328125 47.703125 58.109375 46.359375  Q 60.890625 45.015625 62.859375 42.546875  Q 64.84375 40.09375 65.9375 36.59375  Q 67.046875 33.109375 67.046875 28.8125  z M 50.78125 41.3125  Q 47.359375 41.3125 44.453125 38.234375  Q 41.546875 35.15625 38.8125 28.8125  Q 41.3125 22.5625 44.21875 19.4375  Q 47.125 16.3125 50.875 16.3125  Q 52.984375 16.3125 54.71875 17.28125  Q 56.453125 18.265625 57.6875 19.96875  Q 58.9375 21.6875 59.59375 23.96875  Q 60.25 26.265625 60.25 28.90625  Q 60.25 31.546875 59.546875 33.78125  Q 58.84375 36.03125 57.59375 37.71875  Q 56.34375 39.40625 54.609375 40.359375  Q 52.875 41.3125 50.78125 41.3125  z M 32.421875 29.109375  Q 29.9375 35.359375 27.03125 38.484375  Q 24.125 41.609375 20.3125 41.609375  Q 18.21875 41.609375 16.5 40.625  Q 14.796875 39.65625 13.59375 37.9375  Q 12.40625 36.234375 11.734375 33.9375  Q 11.078125 31.640625 11.078125 29  Q 11.078125 26.515625 11.6875 24.234375  Q 12.3125 21.96875 13.484375 20.28125  Q 14.65625 18.609375 16.375 17.609375  Q 18.109375 16.609375 20.40625 16.609375  Q 23.828125 16.609375 26.75 19.671875  Q 29.6875 22.75 32.421875 29.109375  z " id="LiberationSans-8734"/>
      <path d="M 27.09375 25.78125  Q 27.09375 18.953125 26.0625 12.765625  Q 25.046875 6.59375 22.84375 0.875  Q 20.65625 -4.828125 17.234375 -10.203125  Q 13.8125 -15.578125 9.078125 -20.703125  L 0.59375 -20.703125  Q 5.171875 -15.578125 8.515625 -10.203125  Q 11.859375 -4.828125 14 0.921875  Q 16.15625 6.6875 17.203125 12.890625  Q 18.265625 19.09375 18.265625 25.875  Q 18.265625 32.671875 17.203125 38.859375  Q 16.15625 45.0625 14 50.796875  Q 11.859375 56.546875 8.515625 61.9375  Q 5.171875 67.328125 0.59375 72.46875  L 9.078125 72.46875  Q 13.8125 67.328125 17.234375 61.953125  Q 20.65625 56.59375 22.84375 50.875  Q 25.046875 45.171875 26.0625 38.96875  Q 27.09375 32.765625 27.09375 25.984375  z " id="LiberationSans-41"/>
     </defs>
     <g transform="translate(44.2 23.446875)scale(0.1 -0.1)">
      <use xlink:href="#LiberationSans-82"/>
      <use x="72.216797" xlink:href="#LiberationSans-101"/>
      <use x="127.832031" xlink:href="#LiberationSans-113"/>
      <use x="183.447266" xlink:href="#LiberationSans-117"/>
      <use x="239.0625" xlink:href="#LiberationSans-105"/>
      <use x="261.279297" xlink:href="#LiberationSans-114"/>
      <use x="294.580078" xlink:href="#LiberationSans-101"/>
      <use x="350.195312" xlink:href="#LiberationSans-100"/>
      <use x="405.810547" xlink:href="#LiberationSans-32"/>
      <use x="433.59375" xlink:href="#LiberationSans-99"/>
      <use x="483.59375" xlink:href="#LiberationSans-104"/>
      <use x="539.208984" xlink:href="#LiberationSans-111"/>
      <use x="594.824219" xlink:href="#LiberationSans-112"/>
      <use x="650.439453" xlink:href="#LiberationSans-115"/>
      <use x="700.439453" xlink:href="#LiberationSans-32"/>
      <use x="728.222656" xlink:href="#LiberationSans-40"/>
      <use x="761.523438" xlink:href="#LiberationSans-97"/>
      <use x="817.138672" xlink:href="#LiberationSans-32"/>
      <use x="844.921875" xlink:href="#LiberationSans-61"/>
      <use x="903.320312" xlink:href="#LiberationSans-32"/>
      <use x="931.103516" xlink:href="#LiberationSans-8734"/>
      <use x="1002.392578" xlink:href="#LiberationSans-41"/>
     </g>
    </g>
    <g id="line2d_40">
     <path d="M 16.2 34.26875  L 36.2 34.26875  " style="fill:none;stroke:#348abd;stroke-linecap:round;stroke-width:1.75;"/>
    </g>
    <g id="line2d_41"/>
    <g id="text_20">
     <!-- Required chops (a = 90) -->
     <g transform="translate(44.2 37.76875)scale(0.1 -0.1)">
      <use xlink:href="#LiberationSans-82"/>
      <use x="72.216797" xlink:href="#LiberationSans-101"/>
      <use x="127.832031" xlink:href="#LiberationSans-113"/>
      <use x="183.447266" xlink:href="#LiberationSans-117"/>
      <use x="239.0625" xlink:href="#LiberationSans-105"/>
      <use x="261.279297" xlink:href="#LiberationSans-114"/>
      <use x="294.580078" xlink:href="#LiberationSans-101"/>
      <use x="350.195312" xlink:href="#LiberationSans-100"/>
      <use x="405.810547" xlink:href="#LiberationSans-32"/>
      <use x="433.59375" xlink:href="#LiberationSans-99"/>
      <use x="483.59375" xlink:href="#LiberationSans-104"/>
      <use x="539.208984" xlink:href="#LiberationSans-111"/>
      <use x="594.824219" xlink:href="#LiberationSans-112"/>
      <use x="650.439453" xlink:href="#LiberationSans-115"/>
      <use x="700.439453" xlink:href="#LiberationSans-32"/>
      <use x="728.222656" xlink:href="#LiberationSans-40"/>
      <use x="761.523438" xlink:href="#LiberationSans-97"/>
      <use x="817.138672" xlink:href="#LiberationSans-32"/>
      <use x="844.921875" xlink:href="#LiberationSans-61"/>
      <use x="903.320312" xlink:href="#LiberationSans-32"/>
      <use x="931.103516" xlink:href="#LiberationSans-57"/>
      <use x="986.71875" xlink:href="#LiberationSans-48"/>
      <use x="1042.333984" xlink:href="#LiberationSans-41"/>
     </g>
    </g>
    <g id="line2d_42">
     <path d="M 16.2 48.590625  L 36.2 48.590625  " style="fill:none;stroke:#988ed5;stroke-linecap:round;stroke-width:1.75;"/>
    </g>
    <g id="line2d_43"/>
    <g id="text_21">
     <!-- Required chops (a = 30) -->
     <g transform="translate(44.2 52.090625)scale(0.1 -0.1)">
      <use xlink:href="#LiberationSans-82"/>
      <use x="72.216797" xlink:href="#LiberationSans-101"/>
      <use x="127.832031" xlink:href="#LiberationSans-113"/>
      <use x="183.447266" xlink:href="#LiberationSans-117"/>
      <use x="239.0625" xlink:href="#LiberationSans-105"/>
      <use x="261.279297" xlink:href="#LiberationSans-114"/>
      <use x="294.580078" xlink:href="#LiberationSans-101"/>
      <use x="350.195312" xlink:href="#LiberationSans-100"/>
      <use x="405.810547" xlink:href="#LiberationSans-32"/>
      <use x="433.59375" xlink:href="#LiberationSans-99"/>
      <use x="483.59375" xlink:href="#LiberationSans-104"/>
      <use x="539.208984" xlink:href="#LiberationSans-111"/>
      <use x="594.824219" xlink:href="#LiberationSans-112"/>
      <use x="650.439453" xlink:href="#LiberationSans-115"/>
      <use x="700.439453" xlink:href="#LiberationSans-32"/>
      <use x="728.222656" xlink:href="#LiberationSans-40"/>
      <use x="761.523438" xlink:href="#LiberationSans-97"/>
      <use x="817.138672" xlink:href="#LiberationSans-32"/>
      <use x="844.921875" xlink:href="#LiberationSans-61"/>
      <use x="903.320312" xlink:href="#LiberationSans-32"/>
      <use x="931.103516" xlink:href="#LiberationSans-51"/>
      <use x="986.71875" xlink:href="#LiberationSans-48"/>
      <use x="1042.333984" xlink:href="#LiberationSans-41"/>
     </g>
    </g>
    <g id="line2d_44">
     <path d="M 16.2 62.9125  L 36.2 62.9125  " style="fill:none;stroke:#777777;stroke-linecap:round;stroke-width:1.75;"/>
    </g>
    <g id="line2d_45"/>
    <g id="text_22">
     <!-- Required chops (a = 10) -->
     <g transform="translate(44.2 66.4125)scale(0.1 -0.1)">
      <use xlink:href="#LiberationSans-82"/>
      <use x="72.216797" xlink:href="#LiberationSans-101"/>
      <use x="127.832031" xlink:href="#LiberationSans-113"/>
      <use x="183.447266" xlink:href="#LiberationSans-117"/>
      <use x="239.0625" xlink:href="#LiberationSans-105"/>
      <use x="261.279297" xlink:href="#LiberationSans-114"/>
      <use x="294.580078" xlink:href="#LiberationSans-101"/>
      <use x="350.195312" xlink:href="#LiberationSans-100"/>
      <use x="405.810547" xlink:href="#LiberationSans-32"/>
      <use x="433.59375" xlink:href="#LiberationSans-99"/>
      <use x="483.59375" xlink:href="#LiberationSans-104"/>
      <use x="539.208984" xlink:href="#LiberationSans-111"/>
      <use x="594.824219" xlink:href="#LiberationSans-112"/>
      <use x="650.439453" xlink:href="#LiberationSans-115"/>
      <use x="700.439453" xlink:href="#LiberationSans-32"/>
      <use x="728.222656" xlink:href="#LiberationSans-40"/>
      <use x="761.523438" xlink:href="#LiberationSans-97"/>
      <use x="817.138672" xlink:href="#LiberationSans-32"/>
      <use x="844.921875" xlink:href="#LiberationSans-61"/>
      <use x="903.320312" xlink:href="#LiberationSans-32"/>
      <use x="931.103516" xlink:href="#LiberationSans-49"/>
      <use x="986.71875" xlink:href="#LiberationSans-48"/>
      <use x="1042.333984" xlink:href="#LiberationSans-41"/>
     </g>
    </g>
    <g id="line2d_46">
     <path d="M 16.2 77.234375  L 36.2 77.234375  " style="fill:none;stroke:#fbc15e;stroke-linecap:round;stroke-width:1.75;"/>
    </g>
    <g id="line2d_47"/>
    <g id="text_23">
     <!-- Required chops (a = 1) -->
     <g transform="translate(44.2 80.734375)scale(0.1 -0.1)">
      <use xlink:href="#LiberationSans-82"/>
      <use x="72.216797" xlink:href="#LiberationSans-101"/>
      <use x="127.832031" xlink:href="#LiberationSans-113"/>
      <use x="183.447266" xlink:href="#LiberationSans-117"/>
      <use x="239.0625" xlink:href="#LiberationSans-105"/>
      <use x="261.279297" xlink:href="#LiberationSans-114"/>
      <use x="294.580078" xlink:href="#LiberationSans-101"/>
      <use x="350.195312" xlink:href="#LiberationSans-100"/>
      <use x="405.810547" xlink:href="#LiberationSans-32"/>
      <use x="433.59375" xlink:href="#LiberationSans-99"/>
      <use x="483.59375" xlink:href="#LiberationSans-104"/>
      <use x="539.208984" xlink:href="#LiberationSans-111"/>
      <use x="594.824219" xlink:href="#LiberationSans-112"/>
      <use x="650.439453" xlink:href="#LiberationSans-115"/>
      <use x="700.439453" xlink:href="#LiberationSans-32"/>
      <use x="728.222656" xlink:href="#LiberationSans-40"/>
      <use x="761.523438" xlink:href="#LiberationSans-97"/>
      <use x="817.138672" xlink:href="#LiberationSans-32"/>
      <use x="844.921875" xlink:href="#LiberationSans-61"/>
      <use x="903.320312" xlink:href="#LiberationSans-32"/>
      <use x="931.103516" xlink:href="#LiberationSans-49"/>
      <use x="986.71875" xlink:href="#LiberationSans-41"/>
     </g>
    </g>
   </g>
  </g>
 </g>
 <defs>
  <clipPath id="pc7b6969070">
   <rect height="298.98" width="446.4" x="7.2" y="7.2"/>
  </clipPath>
 </defs>
</svg>